HIERARCHY
ROOT PELVIS
{
    OFFSET 0 0 0
    CHANNELS 6 Xposition Yposition Zposition Xrotation Yrotation Zrotation
    JOINT A
    {
        OFFSET 17.31787007841508 0.34904812874567026 -9.998476951563907
        CHANNELS 3 Xrotation Yrotation Zrotation
        JOINT a
        {
            OFFSET 17.31787007841508 -0.34904812874567026 -9.99847695156392
            CHANNELS 3 Xrotation Yrotation Zrotation
        }
    }
    JOINT B_PELVIS
    {
        OFFSET 0.1 0.0 0.17320508075688396
        CHANNELS 3 Xrotation Yrotation Zrotation
        JOINT B
        {
            OFFSET 9.898476951563907 0.34904812874567026 17.144664997658186
            CHANNELS 3 Xrotation Yrotation Zrotation
            JOINT b
            {
                OFFSET 9.998476951563907 -0.34904812874567026 17.31787007841508
                CHANNELS 3 Xrotation Yrotation Zrotation
            }
        }
    }
    JOINT C_PELVIS
    {
        OFFSET -0.17320508075688396 0.0 0.1
        CHANNELS 3 Xrotation Yrotation Zrotation
        JOINT C
        {
            OFFSET -17.144664997658197 0.3490481287456689 9.898476951563907
            CHANNELS 3 Xrotation Yrotation Zrotation
            JOINT c
            {
                OFFSET -17.31787007841508 -0.3490481287456689 9.99847695156392
                CHANNELS 3 Xrotation Yrotation Zrotation
            }
        }
    }
}
MOTION
Frames: 22
Frame Time: 0.01
0 0 0 0.0 0.0 0.0 0.0 0.0 0.0 0 0 0 0.0 0.0 0.0 0.0 0.0 0.0 0 0 0 0.0 0.0 0.0 0.0 0.0 0.0 0 0 0 
0 0 0 0.49998096213614546 -0.0037786527564733358 0.86601441277085 -0.9998477144812211 -0.015113460176022957 -1.731962901553292 0 0 0 -0.875124979191971 0.02147059283491966 0.5044332036381376 1.7409524947217538 -0.002140521773482674 -1.0059151825604664 0 0 0 -1.0048940520937855 -0.015266435022498777 -1.7407060916238308 1.0048940520937928 -0.015266435022549667 1.7407060916238402 0 0 0 
0 0 0 0.9998477144812188 -0.015113460175984791 1.73196290155329 -1.9987822717815706 -0.06043543778667183 -3.4633990734292377 0 0 0 -1.750598864954911 0.05061391457254779 1.0080927439135148 3.4819327406083036 0.06152120786169618 -2.0094341924891563 0 0 0 -2.0088578893963778 -0.061046770388214655 -3.4808719572347346 2.0088578893963804 -0.061046770388303716 3.480871957234737 0 0 0 
0 0 0 1.4994861341468444 -0.03400097104447629 2.597779652771666 -2.995893287028374 -0.13591080936019193 -5.193785311281356 0 0 0 -2.6263519255176853 0.08740322644647867 1.510860980648189 5.221616397264628 0.19071536877370363 -3.0059637140217936 0 0 0 -3.01096574894361 -0.1372843303941781 -5.2199637465680295 3.0109657489436183 -0.13728433039421625 5.219963746568043 0 0 0 
0 0 0 1.998782271781569 -0.060435437786659114 3.463399073429238 -3.99027588580221 -0.2414479856142476 -6.9226054300691455 0 0 0 -3.5023150592094785 0.13180937637969867 2.0126213227857432 6.9587295218328045 0.38490654727521845 -3.9909346368611134 0 0 0 -4.010297557410053 -0.24388504661168106 -6.957454831395644 4.0102975574100554 -0.24388504661178284 6.9574548313956495 0 0 0 
0 0 0 2.497622437669479 -0.09440882312306755 4.3287559007825935 -4.9810333745853335 -0.3769193323994464 -8.64935369596676 0 0 0 -4.378419905472574 0.18380084002203645 2.5132583167282863 8.692080528001734 0.6432965643567735 -4.959819484488883 0 0 0 -5.005941682946116 -0.38071789549017016 -8.69282933238795 5.005941682946129 -0.38071789549017016 8.69282933238796 0 0 0 
0 0 0 2.995893287028371 -0.13591080936016647 5.193785311281358 -5.967279811218693 -0.5421617524772032 -10.373538166764009 0 0 0 -5.254598953008108 0.24334376446150566 3.012657731700504 10.42059060318871 0.9648287350966404 -5.9081482931219345 0 0 0 -5.99699758292118 -0.5476155028134452 -10.425585550538301 5.996997582921181 -0.5476155028135469 10.425585550538301 0 0 0 
0 0 0 3.493481904246585 -0.1849288102831705 6.05842302853452 -6.948142444882976 -0.7369774207827389 -12.094683913175103 0 0 0 -6.130785644836437 0.3104020144880935 3.510706641899066 12.143322040406375 1.348193355211087 -6.831522417769477 0 0 0 -6.982578315901379 -0.7443749073002163 -12.155239274443709 6.982578315901387 -0.7443749073002925 12.155239274443726 0 0 0 
0 0 0 3.9902758858022116 -0.24144798561423486 6.922605430069153 -7.922763997443083 -0.9611346639883677 -13.812336095856951 0 0 0 -7.0069144800688985 0.3849372212819717 4.007293505200952 13.859504021409627 1.7918341570970768 -7.725625839447741 0 0 0 -7.961812888638451 -0.9707584737198909 -13.88132693724565 7.961812888638451 -0.9707584737199672 13.881326937245657 0 0 0 
0 0 0 4.486163421614627 -0.30545125798918765 7.786269652653909 -8.890304760763874 -1.2143689735390566 -15.526062875785794 0 0 0 -7.882921112204466 0.46690883339141426 4.502308238220925 15.568555479642814 2.29395543539842 -8.586233663173111 0 0 0 -8.933848411761078 -1.2264949441796198 -15.603408600031509 8.933848411761081 -1.2264949441796325 15.603408600031496 0 0 0 
0 0 0 4.981033374585329 -0.37691933239942094 8.649353695966761 -9.849944487734222 -1.4963841399010593 -17.235458138865557 0 0 0 -8.758742443781621 0.5562741698598922 4.995642287525133 17.270104768056218 2.852529512451302 -9.409217623707391 0 0 0 -9.89785204115157 -1.5112806147462146 -17.321070741885283 9.897852041151577 -1.5112806147462783 17.321070741885283 0 0 0 
0 0 0 5.474775358093225 -0.4558307180374415 9.5117965243949 -10.800884058136479 -1.8068534945737478 -18.94014401915427 0 0 0 -9.634316717233652 0.6529884753568795 5.487188696825636 18.964005950629094 3.465304197530989 -10.190548549064173 0 0 0 -10.853012685564023 -1.8247806233304207 -19.033928840465407 10.853012685564034 -1.8247806233304207 19.033928840465396 0 0 0 
0 0 0 5.967279811218689 -0.542161752477216 10.37353816676401 -11.742346904073274 -2.1454212454753674 -20.63977320880003 0 0 0 -10.509583601813485 0.7570049771624145 5.976842169998583 20.650351620383358 4.129809890531717 -10.926295865033634 0 0 0 -11.798542464794052 -2.166630333789227 -20.74162973087487 11.798542464794071 -2.1666303337892523 20.741629730874884 0 0 0 
0 0 0 6.458438071480807 -0.6358866281141345 11.23451981380478 -12.673580183318393 -2.511703890633298 -22.33403104658257 0 0 0 -11.384484276473067 0.8682749438519459 6.4644991297872405 22.32948221457941 4.84336598991621 -11.612624353073118 0 0 0 -12.733677906541413 -2.5364368005047995 -22.44385373457307 12.73367790654141 -2.5364368005048754 22.443853734573068 0 0 0 
0 0 0 6.948142444882972 -0.7369774207827133 12.094683913175105 -13.59385569259801 -2.905291694687202 -24.02263738076471 0 0 0 -12.258961508600564 0.986747745524729 6.950057772069519 24.001991844563335 5.603086285431612 -12.245788495863977 0 0 0 -13.65768087391968 -2.9337802972729032 -24.140316554064416 13.657680873919695 -2.9337802972729286 24.140316554064427 0 0 0 
0 0 0 7.436286273073892 -0.8454041204638703 12.953974261869233 -14.50247051634759 -3.325750212543236 -25.705348205686594 0 0 0 -13.132959728537605 1.1123709154173016 7.433418115588265 25.668730679595203 6.405883047011119 -12.822124858204253 0 0 0 -14.569839219265987 -3.3582158941736853 -25.830770932991168 14.569839219266004 -3.3582158941736853 25.830770932991157 0 0 0 
0 0 0 7.922763997443082 -0.9611346639883295 13.812336095856958 -15.39874740984683 -3.7726218445856365 -27.381957075103262 0 0 0 -14.006425099817845 1.2450902127412071 7.914482047061312 27.330803918479205 7.248469561312925 -13.338043055722522 0 0 0 -15.469467163408353 -3.809275066187407 -27.51500808497859 15.469467163408366 -3.809275066187458 27.515008084978593 0 0 0 
0 0 0 8.407471219983087 -1.084134969637609 14.66971617680997 -16.282034918744007 -4.245427408136473 -29.05229629860866 0 0 0 -14.879305585086156 1.384849686584829 8.393153361606279 28.98956734876064 8.127360915597036 -13.790015961472283 0 0 0 -16.355905402784842 -4.286467317635533 -29.19285889805537 16.355905402784835 -4.286467317635597 29.19285889805537 0 0 0 
0 0 0 8.890304760763867 -1.214368973539031 15.52606287578579 -17.151707239783537 -4.743667710339313 -30.71623793054897 0 0 0 -15.751551007676756 1.5315917407168733 8.869337798433687 30.64661943066505 9.038872884641162 -14.174569893049132 0 0 0 -17.228520949720732 -4.789281807052267 -30.864194924647194 17.228520949720718 -4.789281807052343 30.864194924647187 0 0 0 
0 0 0 9.371162711878586 -1.351798667747242 16.381326253754178 -18.007163830005048 -5.266825108292283 -32.37369456356354 0 0 0 -16.62311310884581 1.6852571991315979 9.34294307177908 32.30378975293229 9.979118840246418 -14.48827561319684 0 0 0 -18.086706713710115 -5.317188957791703 -32.52892916996975 18.086706713710125 -5.317188957791805 32.52892916996975 0 0 0 
0 0 0 9.849944487734215 -1.496384139901072 17.235458138865564 -18.847828773756707 -5.814365043050757 -34.02461994127542 0 0 0 -17.49394560067244 1.845785372175379 9.81387889706268 33.96312359245014 10.944004675341958 -14.727741067587415 0 0 0 -18.92988083368891 -5.8696420405222005 -34.18701669410233 18.92988083368893 -5.8696420405222005 34.18701669410232 0 0 0 
0 0 0 10.326550871574366 -1.6480836143415807 18.088412200375444 -19.673149918544603 -6.385737535022741 -35.66900940666639 0 0 0 -18.36400421465821 2.013114123097822 10.282057012280811 35.626862172544946 11.929221817195304 -14.889606876485955 0 0 0 -19.757485773007275 -6.446078714720388 -35.83845504508695 19.75748577300729 -6.4460787147204 35.838455045086945 0 0 0 
